<?xml version="1.0" encoding="UTF-8"?>
<svg version="1.1" xmlns="http://www.w3.org/2000/svg" width="512" height="512">
<path d="M0 0 C0.76746878 0.00468233 1.53493756 0.00936466 2.32566297 0.01418889 C3.54891989 0.00982856 3.54891989 0.00982856 4.79688907 0.00538015 C7.55907111 -0.00198132 10.32103525 0.00505191 13.08321607 0.01190388 C15.07167174 0.00960188 17.06012655 0.00642711 19.04857957 0.00244939 C24.53578113 -0.005943 30.02291362 -0.00175328 35.5101155 0.00442183 C41.41883581 0.00892725 47.32754382 0.0019721 53.23626173 -0.00353801 C64.15014197 -0.01193818 75.06399833 -0.01118087 85.97787985 -0.00571508 C96.05898429 -0.00069092 106.14008061 0.00063269 116.22118604 -0.00176036 C116.88897746 -0.00191313 117.55676888 -0.0020659 118.2447964 -0.0022233 C120.9553399 -0.00284594 123.66588339 -0.00348274 126.37642688 -0.00414283 C151.82165118 -0.01026567 177.26686135 -0.00470625 202.71208347 0.00605096 C225.33604605 0.01554271 247.95998611 0.01469348 270.58394849 0.00512898 C295.98158938 -0.00557213 321.37921777 -0.0098315 346.77686059 -0.00364649 C349.48256592 -0.00300502 352.18827124 -0.00237935 354.89397657 -0.00176036 C355.56022725 -0.00160221 356.22647794 -0.00144405 356.91291804 -0.00128111 C366.98955441 0.00099721 377.06618178 -0.00167298 387.1428169 -0.00671947 C398.59636957 -0.01231551 410.04989481 -0.01083887 421.50344431 -0.00015798 C427.352691 0.00511601 433.20189188 0.00712626 439.05113828 0.00054371 C444.39768392 -0.00538233 449.74414094 -0.00219644 455.09067845 0.00849882 C457.03276703 0.01074715 458.97486298 0.00956485 460.91694689 0.00474724 C463.54124009 -0.00126715 466.16522311 0.0048346 468.78949964 0.01418889 C469.94070281 0.00716539 469.94070281 0.00716539 471.11516261 0 C476.32928056 0.03757042 476.32928056 0.03757042 478.55758131 2.26587117 C478.80827963 4.35863125 478.80827963 4.35863125 478.80926359 7.00418293 C478.81447908 8.01014956 478.81969458 9.01611619 478.82506812 10.05256665 C478.82060667 11.16596983 478.81614523 12.27937302 478.81154859 13.4265157 C478.81466857 14.6028765 478.81778855 15.77923729 478.82100308 16.99124539 C478.82762234 20.2665689 478.82520995 23.5417454 478.81903064 26.81706536 C478.81452149 30.34539861 478.82148224 33.87371137 478.82699049 37.4020406 C478.83590263 44.31802479 478.8339544 51.23396566 478.8281652 58.14995158 C478.82365586 63.76869354 478.82303265 69.38742333 478.82521284 75.00616658 C478.8255193 75.80462219 478.82582577 76.6030778 478.82614152 77.42572904 C478.82678095 79.04757051 478.82742937 80.66941198 478.8280867 82.29125345 C478.83379533 97.51375691 478.82722377 112.73623631 478.81648597 127.95873582 C478.80754998 141.03182945 478.80910187 154.10488756 478.81832349 167.17798054 C478.82901673 182.34450757 478.83324596 197.51101349 478.82709897 212.67754376 C478.82646184 214.29355442 478.8258331 215.90956509 478.82521284 217.52557576 C478.82490429 218.32076811 478.82459573 219.11596047 478.82427783 219.93524957 C478.82254805 225.54987678 478.82547208 231.16449065 478.83017194 236.7791158 C478.83577028 243.6176925 478.83428648 250.45622327 478.82361045 257.29479468 C478.81833956 260.78664154 478.81632094 264.2784117 478.82290876 267.77025807 C478.82833168 271.54865872 478.82156975 275.32684015 478.81154859 279.10522664 C478.81601003 280.21862982 478.82047148 281.33203301 478.82506812 282.47917569 C478.81985262 283.48514231 478.81463713 284.49110894 478.80926359 285.5275594 C478.80893888 286.40059145 478.80861418 287.27362351 478.80827963 288.17311108 C478.55758131 290.26587117 478.55758131 290.26587117 476.55758131 292.26587117 C473.93344511 292.46303237 471.41484949 292.53357073 468.78949964 292.51755345 C467.56624272 292.52191377 467.56624272 292.52191377 466.31827354 292.52636218 C463.55609151 292.53372366 460.79412736 292.52669042 458.03194654 292.51983845 C456.04349087 292.52214046 454.05503606 292.52531522 452.06658304 292.52929294 C446.57938148 292.53768533 441.09224899 292.53349562 435.60504711 292.5273205 C429.6963268 292.52281509 423.78761879 292.52977023 417.87890089 292.53528035 C406.96502064 292.54368051 396.05116428 292.54292321 385.13728276 292.53745741 C375.05617832 292.53243325 364.97508201 292.53110964 354.89397657 292.5335027 C354.22618515 292.53365547 353.55839373 292.53380824 352.87036621 292.53396564 C350.15982271 292.53458828 347.44927922 292.53522508 344.73873573 292.53588517 C319.29351143 292.542008 293.84830126 292.53644858 268.40307914 292.52569137 C245.77911656 292.51619963 223.1551765 292.51704886 200.53121412 292.52661335 C175.13357323 292.53731447 149.73594484 292.54157384 124.33830202 292.53538883 C121.63259669 292.53474736 118.92689137 292.53412168 116.22118604 292.5335027 C115.55493536 292.53334454 114.88868467 292.53318639 114.20224457 292.53302344 C104.1256082 292.53074512 94.04898084 292.53341531 83.97234571 292.5384618 C72.51879304 292.54405784 61.0652678 292.54258121 49.6117183 292.53190032 C43.76247161 292.52662633 37.91327073 292.52461607 32.06402433 292.53119862 C26.71747869 292.53712466 21.37102167 292.53393877 16.02448416 292.52324352 C14.08239558 292.52099519 12.14029963 292.52217749 10.19821572 292.52699509 C7.57392252 292.53300948 4.9499395 292.52690773 2.32566297 292.51755345 C1.55819419 292.52223578 0.79072541 292.52691811 0 292.53174233 C-5.21411795 292.49417191 -5.21411795 292.49417191 -7.44241869 290.26587117 C-7.69311702 288.17311108 -7.69311702 288.17311108 -7.69410098 285.5275594 C-7.69931647 284.52159277 -7.70453197 283.51562615 -7.70990551 282.47917569 C-7.70544406 281.3657725 -7.70098262 280.25236931 -7.69638598 279.10522664 C-7.69950596 277.92886584 -7.70262594 276.75250504 -7.70584047 275.54049695 C-7.71245973 272.26517343 -7.71004734 268.98999694 -7.70386803 265.71467698 C-7.69935888 262.18634373 -7.70631963 258.65803096 -7.71182787 255.12970173 C-7.72074002 248.21371755 -7.71879179 241.29777667 -7.71300259 234.38179076 C-7.70849325 228.7630488 -7.70787004 223.14431901 -7.71005023 217.52557576 C-7.71035669 216.72712015 -7.71066316 215.92866453 -7.71097891 215.1060133 C-7.71161833 213.48417182 -7.71226676 211.86233035 -7.71292409 210.24048889 C-7.71863272 195.01798543 -7.71206115 179.79550602 -7.70132336 164.57300651 C-7.69238736 151.49991289 -7.69393926 138.42685478 -7.70316088 125.35376179 C-7.71385412 110.18723477 -7.71808335 95.02072884 -7.71193635 79.85419858 C-7.71129923 78.23818791 -7.71067049 76.62217725 -7.71005023 75.00616658 C-7.70974167 74.21097422 -7.70943312 73.41578186 -7.70911522 72.59649277 C-7.70738544 66.98186556 -7.71030947 61.36725168 -7.71500933 55.75262654 C-7.72060767 48.91404984 -7.71912387 42.07551907 -7.70844784 35.23694766 C-7.70317695 31.74510079 -7.70115833 28.25333063 -7.70774615 24.76148427 C-7.71316906 20.98308361 -7.70640714 17.20490218 -7.69638598 13.4265157 C-7.70084742 12.31311251 -7.70530887 11.19970932 -7.70990551 10.05256665 C-7.70469001 9.04660002 -7.69947452 8.0406334 -7.69410098 7.00418293 C-7.69377627 6.13115088 -7.69345157 5.25811882 -7.69311702 4.35863125 C-7.12990137 -0.34293671 -3.99181022 0.02876306 0 0 Z " fill="#344195" transform="translate(20.442418694496155,109.73412883281708)"/>
<path d="M0 0 C154.44 0 308.88 0 468 0 C468 30.03 468 60.06 468 91 C313.56 91 159.12 91 0 91 C0 60.97 0 30.94 0 0 Z " fill="#D71F26" transform="translate(22,301)"/>
<path d="M0 0 C153.78 0 307.56 0 466 0 C466 29.7 466 59.4 466 90 C312.22 90 158.44 90 0 90 C0 60.3 0 30.6 0 0 Z " fill="#FFFFFF" transform="translate(23,120)"/>
<path d="M0 0 C0.76746878 0.00468233 1.53493756 0.00936466 2.32566297 0.01418889 C3.54891989 0.00982856 3.54891989 0.00982856 4.79688907 0.00538015 C7.55907111 -0.00198132 10.32103525 0.00505191 13.08321607 0.01190388 C15.07167174 0.00960188 17.06012655 0.00642711 19.04857957 0.00244939 C24.53578113 -0.005943 30.02291362 -0.00175328 35.5101155 0.00442183 C41.41883581 0.00892725 47.32754382 0.0019721 53.23626173 -0.00353801 C64.15014197 -0.01193818 75.06399833 -0.01118087 85.97787985 -0.00571508 C96.05898429 -0.00069092 106.14008061 0.00063269 116.22118604 -0.00176036 C116.88897746 -0.00191313 117.55676888 -0.0020659 118.2447964 -0.0022233 C120.9553399 -0.00284594 123.66588339 -0.00348274 126.37642688 -0.00414283 C151.82165118 -0.01026567 177.26686135 -0.00470625 202.71208347 0.00605096 C225.33604605 0.01554271 247.95998611 0.01469348 270.58394849 0.00512898 C295.98158938 -0.00557213 321.37921777 -0.0098315 346.77686059 -0.00364649 C349.48256592 -0.00300502 352.18827124 -0.00237935 354.89397657 -0.00176036 C355.56022725 -0.00160221 356.22647794 -0.00144405 356.91291804 -0.00128111 C366.98955441 0.00099721 377.06618178 -0.00167298 387.1428169 -0.00671947 C398.59636957 -0.01231551 410.04989481 -0.01083887 421.50344431 -0.00015798 C427.352691 0.00511601 433.20189188 0.00712626 439.05113828 0.00054371 C444.39768392 -0.00538233 449.74414094 -0.00219644 455.09067845 0.00849882 C457.03276703 0.01074715 458.97486298 0.00956485 460.91694689 0.00474724 C463.54124009 -0.00126715 466.16522311 0.0048346 468.78949964 0.01418889 C469.94070281 0.00716539 469.94070281 0.00716539 471.11516261 0 C476.32928056 0.03757042 476.32928056 0.03757042 478.55758131 2.26587117 C478.80827963 4.35863125 478.80827963 4.35863125 478.80926359 7.00418293 C478.81447908 8.01014956 478.81969458 9.01611619 478.82506812 10.05256665 C478.82060667 11.16596983 478.81614523 12.27937302 478.81154859 13.4265157 C478.81466857 14.6028765 478.81778855 15.77923729 478.82100308 16.99124539 C478.82762234 20.2665689 478.82520995 23.5417454 478.81903064 26.81706536 C478.81452149 30.34539861 478.82148224 33.87371137 478.82699049 37.4020406 C478.83590263 44.31802479 478.8339544 51.23396566 478.8281652 58.14995158 C478.82365586 63.76869354 478.82303265 69.38742333 478.82521284 75.00616658 C478.8255193 75.80462219 478.82582577 76.6030778 478.82614152 77.42572904 C478.82678095 79.04757051 478.82742937 80.66941198 478.8280867 82.29125345 C478.83379533 97.51375691 478.82722377 112.73623631 478.81648597 127.95873582 C478.80754998 141.03182945 478.80910187 154.10488756 478.81832349 167.17798054 C478.82901673 182.34450757 478.83324596 197.51101349 478.82709897 212.67754376 C478.82646184 214.29355442 478.8258331 215.90956509 478.82521284 217.52557576 C478.82490429 218.32076811 478.82459573 219.11596047 478.82427783 219.93524957 C478.82254805 225.54987678 478.82547208 231.16449065 478.83017194 236.7791158 C478.83577028 243.6176925 478.83428648 250.45622327 478.82361045 257.29479468 C478.81833956 260.78664154 478.81632094 264.2784117 478.82290876 267.77025807 C478.82833168 271.54865872 478.82156975 275.32684015 478.81154859 279.10522664 C478.81601003 280.21862982 478.82047148 281.33203301 478.82506812 282.47917569 C478.81985262 283.48514231 478.81463713 284.49110894 478.80926359 285.5275594 C478.80893888 286.40059145 478.80861418 287.27362351 478.80827963 288.17311108 C478.55758131 290.26587117 478.55758131 290.26587117 476.55758131 292.26587117 C473.93344511 292.46303237 471.41484949 292.53357073 468.78949964 292.51755345 C467.56624272 292.52191377 467.56624272 292.52191377 466.31827354 292.52636218 C463.55609151 292.53372366 460.79412736 292.52669042 458.03194654 292.51983845 C456.04349087 292.52214046 454.05503606 292.52531522 452.06658304 292.52929294 C446.57938148 292.53768533 441.09224899 292.53349562 435.60504711 292.5273205 C429.6963268 292.52281509 423.78761879 292.52977023 417.87890089 292.53528035 C406.96502064 292.54368051 396.05116428 292.54292321 385.13728276 292.53745741 C375.05617832 292.53243325 364.97508201 292.53110964 354.89397657 292.5335027 C354.22618515 292.53365547 353.55839373 292.53380824 352.87036621 292.53396564 C350.15982271 292.53458828 347.44927922 292.53522508 344.73873573 292.53588517 C319.29351143 292.542008 293.84830126 292.53644858 268.40307914 292.52569137 C245.77911656 292.51619963 223.1551765 292.51704886 200.53121412 292.52661335 C175.13357323 292.53731447 149.73594484 292.54157384 124.33830202 292.53538883 C121.63259669 292.53474736 118.92689137 292.53412168 116.22118604 292.5335027 C115.55493536 292.53334454 114.88868467 292.53318639 114.20224457 292.53302344 C104.1256082 292.53074512 94.04898084 292.53341531 83.97234571 292.5384618 C72.51879304 292.54405784 61.0652678 292.54258121 49.6117183 292.53190032 C43.76247161 292.52662633 37.91327073 292.52461607 32.06402433 292.53119862 C26.71747869 292.53712466 21.37102167 292.53393877 16.02448416 292.52324352 C14.08239558 292.52099519 12.14029963 292.52217749 10.19821572 292.52699509 C7.57392252 292.53300948 4.9499395 292.52690773 2.32566297 292.51755345 C1.55819419 292.52223578 0.79072541 292.52691811 0 292.53174233 C-5.21411795 292.49417191 -5.21411795 292.49417191 -7.44241869 290.26587117 C-7.69311702 288.17311108 -7.69311702 288.17311108 -7.69410098 285.5275594 C-7.69931647 284.52159277 -7.70453197 283.51562615 -7.70990551 282.47917569 C-7.70544406 281.3657725 -7.70098262 280.25236931 -7.69638598 279.10522664 C-7.69950596 277.92886584 -7.70262594 276.75250504 -7.70584047 275.54049695 C-7.71245973 272.26517343 -7.71004734 268.98999694 -7.70386803 265.71467698 C-7.69935888 262.18634373 -7.70631963 258.65803096 -7.71182787 255.12970173 C-7.72074002 248.21371755 -7.71879179 241.29777667 -7.71300259 234.38179076 C-7.70849325 228.7630488 -7.70787004 223.14431901 -7.71005023 217.52557576 C-7.71035669 216.72712015 -7.71066316 215.92866453 -7.71097891 215.1060133 C-7.71161833 213.48417182 -7.71226676 211.86233035 -7.71292409 210.24048889 C-7.71863272 195.01798543 -7.71206115 179.79550602 -7.70132336 164.57300651 C-7.69238736 151.49991289 -7.69393926 138.42685478 -7.70316088 125.35376179 C-7.71385412 110.18723477 -7.71808335 95.02072884 -7.71193635 79.85419858 C-7.71129923 78.23818791 -7.71067049 76.62217725 -7.71005023 75.00616658 C-7.70974167 74.21097422 -7.70943312 73.41578186 -7.70911522 72.59649277 C-7.70738544 66.98186556 -7.71030947 61.36725168 -7.71500933 55.75262654 C-7.72060767 48.91404984 -7.71912387 42.07551907 -7.70844784 35.23694766 C-7.70317695 31.74510079 -7.70115833 28.25333063 -7.70774615 24.76148427 C-7.71316906 20.98308361 -7.70640714 17.20490218 -7.69638598 13.4265157 C-7.70084742 12.31311251 -7.70530887 11.19970932 -7.70990551 10.05256665 C-7.70469001 9.04660002 -7.69947452 8.0406334 -7.69410098 7.00418293 C-7.69377627 6.13115088 -7.69345157 5.25811882 -7.69311702 4.35863125 C-7.12990137 -0.34293671 -3.99181022 0.02876306 0 0 Z M1.55758131 9.26587117 C1.55758131 99.35587117 1.55758131 189.44587117 1.55758131 282.26587117 C155.99758131 282.26587117 310.43758131 282.26587117 469.55758131 282.26587117 C469.55758131 192.17587117 469.55758131 102.08587117 469.55758131 9.26587117 C315.11758131 9.26587117 160.67758131 9.26587117 1.55758131 9.26587117 Z " fill="#020000" transform="translate(20.442418694496155,109.73412883281708)"/>
</svg>
