<?xml version="1.0" encoding="UTF-8"?>
<svg id="_Слой_1" data-name="Слой 1" xmlns="http://www.w3.org/2000/svg" viewBox="0 0 491.01 214.52">
  <defs>
    <style>
      .cls-1 {
        fill: #07f;
      }

      .cls-1, .cls-2 {
        stroke-width: 0px;
      }

      .cls-2 {
        fill: #fff;
      }
    </style>
  </defs>
  <g id="_Слой_2-2" data-name=" Слой 2">
    <g>
      <path class="cls-2" d="M74.53,214.52c-5.71,0-10.5-1-14.39-3s-6.85-4.82-8.88-8.45c-2.03-3.64-3.19-7.88-3.48-12.73-.07-1.28-.11-2.85-.11-4.71s.04-3.42.11-4.71c.28-4.92,1.48-9.18,3.58-12.79,2.1-3.6,5.1-6.4,8.99-8.4s8.61-3,14.18-3,10.29,1,14.18,3,6.88,4.8,8.99,8.4c2.1,3.6,3.3,7.86,3.58,12.79.07,1.28.11,2.85.11,4.71s-.04,3.42-.11,4.71c-.29,4.85-1.44,9.1-3.48,12.73-2.03,3.64-4.99,6.46-8.88,8.45-3.89,2-8.69,3-14.39,3ZM74.53,203.93c3.78,0,6.7-1.19,8.77-3.58,2.07-2.39,3.21-5.9,3.42-10.54.07-1.07.11-2.46.11-4.17s-.04-3.1-.11-4.17c-.21-4.56-1.36-8.06-3.42-10.49-2.07-2.42-4.99-3.64-8.77-3.64s-6.71,1.21-8.77,3.64c-2.07,2.43-3.21,5.92-3.42,10.49-.07,1.07-.11,2.46-.11,4.17s.04,3.1.11,4.17c.21,4.64,1.35,8.15,3.42,10.54s4.99,3.58,8.77,3.58Z"/>
      <path class="cls-2" d="M124.17,213.45c-.79,0-1.41-.25-1.87-.75s-.7-1.11-.7-1.82v-41.73h-17.44c-.79,0-1.41-.25-1.87-.75s-.7-1.11-.7-1.82v-6.21c0-.71.23-1.32.7-1.82.46-.5,1.09-.75,1.87-.75h48.58c.78,0,1.43.25,1.93.75s.75,1.11.75,1.82v6.21c0,.71-.25,1.32-.75,1.82s-1.14.75-1.93.75h-17.33v41.73c0,.71-.25,1.32-.75,1.82s-1.11.75-1.82.75h-8.67,0Z"/>
      <path class="cls-2" d="M156.06,213.45c-.79,0-1.43-.25-1.93-.75s-.75-1.14-.75-1.93v-6.63c0-1.57.82-2.42,2.46-2.57,2.14-.14,3.85-1.14,5.14-3,1.28-1.85,2.21-4.72,2.78-8.61.57-3.89.86-8.93.86-15.14v-14.44c0-.71.25-1.32.75-1.82s1.14-.75,1.93-.75h37.98c.71,0,1.32.25,1.82.75s.75,1.11.75,1.82v50.5c0,.71-.25,1.32-.75,1.82s-1.11.75-1.82.75h-8.88c-.79,0-1.41-.25-1.87-.75-.46-.5-.7-1.11-.7-1.82v-41.73h-15.73v7.17c0,6.85-.37,12.64-1.12,17.39-.75,4.74-2,8.56-3.75,11.45s-4.03,4.99-6.85,6.31c-2.82,1.32-6.26,1.98-10.33,1.98h0Z"/>
      <path class="cls-2" d="M218.65,213.45c-.64,0-1.21-.25-1.71-.75s-.75-1.07-.75-1.71v-50.61c0-.71.25-1.32.75-1.82s1.1-.75,1.82-.75h8.88c.78,0,1.41.25,1.87.75.46.5.7,1.11.7,1.82v42.27l-3.75-2.68,29.42-40.45c.36-.5.75-.91,1.18-1.23.43-.32,1-.48,1.71-.48h8.13c.64,0,1.21.23,1.71.7.5.46.75,1.02.75,1.66v50.72c0,.71-.25,1.32-.75,1.82s-1.11.75-1.82.75h-8.88c-.79,0-1.41-.25-1.87-.75-.46-.5-.7-1.11-.7-1.82v-40.34l3.96.54-29.64,40.66c-.29.43-.66.82-1.12,1.18-.46.36-1.05.54-1.77.54h-8.13v-.02Z"/>
      <path class="cls-2" d="M311.96,213.45c-.71,0-1.32-.25-1.82-.75s-.75-1.11-.75-1.82v-18.19c-1.78,1.57-3.98,2.73-6.58,3.48-2.6.75-5.55,1.12-8.83,1.12-6.49,0-11.5-1.55-15.03-4.65-3.53-3.1-5.3-8.11-5.3-15.03v-17.23c0-.71.23-1.32.7-1.82.46-.5,1.09-.75,1.87-.75h9.2c.71,0,1.32.25,1.82.75s.75,1.11.75,1.82v16.48c0,2.85.77,4.91,2.3,6.15,1.53,1.25,4.01,1.87,7.44,1.87s6.31-.46,8.45-1.39,3.21-2.57,3.21-4.92v-18.19c0-.71.25-1.32.75-1.82s1.11-.75,1.82-.75h9.63c.71,0,1.32.25,1.82.75s.75,1.11.75,1.82v50.5c0,.71-.25,1.32-.75,1.82s-1.11.75-1.82.75h-9.63Z"/>
      <path class="cls-2" d="M334.96,213.45c-.64,0-1.21-.25-1.71-.75s-.75-1.07-.75-1.71v-50.61c0-.71.25-1.32.75-1.82s1.1-.75,1.82-.75h8.88c.78,0,1.41.25,1.87.75s.7,1.11.7,1.82v42.27l-3.75-2.68,29.42-40.45c.36-.5.75-.91,1.18-1.23.43-.32,1-.48,1.71-.48h8.13c.64,0,1.21.23,1.71.7.5.46.75,1.02.75,1.66v50.72c0,.71-.25,1.32-.75,1.82s-1.11.75-1.82.75h-8.88c-.79,0-1.41-.25-1.87-.75s-.7-1.11-.7-1.82v-40.34l3.96.54-29.64,40.66c-.29.43-.66.82-1.12,1.18-.46.36-1.05.54-1.77.54h-8.13v-.02Z"/>
      <path class="cls-2" d="M394.13,213.45c-.64,0-1.18-.21-1.6-.64-.43-.43-.64-.93-.64-1.5,0-.21.04-.48.11-.8.07-.32.25-.62.53-.91l11.98-18.83,13.05,1.71-11.88,19.37c-.21.43-.57.8-1.07,1.12-.5.32-1.04.48-1.6.48h-8.88,0ZM428.37,213.45c-.79,0-1.41-.25-1.87-.75s-.7-1.11-.7-1.82v-16.37h-10.59v-.53c-7.21,0-12.61-1.66-16.21-4.98-3.6-3.32-5.4-7.69-5.4-13.11,0-5.99,1.89-10.5,5.67-13.54,3.78-3.03,9.24-4.55,16.37-4.55h21.83c.71,0,1.32.25,1.82.75s.75,1.11.75,1.82v50.5c0,.71-.25,1.32-.75,1.82s-1.11.75-1.82.75h-9.1ZM415.32,184.35h10.7v-16.37h-10.06c-3.28,0-5.71.59-7.28,1.77-1.57,1.18-2.35,3.23-2.35,6.15,0,2.5.73,4.53,2.19,6.1s3.73,2.35,6.79,2.35h0Z"/>
    </g>
  </g>
  <g id="_Слой_3" data-name=" Слой 3">
    <path class="cls-2" d="M473.92,141H17.08c-9.42,0-17.08-7.66-17.08-17.08V17.08C0,7.66,7.66,0,17.08,0h456.85c9.42,0,17.08,7.66,17.08,17.08v106.85c0,9.42-7.66,17.08-17.08,17.08h0ZM17.08,14c-1.7,0-3.08,1.38-3.08,3.08v106.85c0,1.7,1.38,3.08,3.08,3.08h456.85c1.7,0,3.08-1.38,3.08-3.08V17.08c0-1.7-1.38-3.08-3.08-3.08H17.08Z"/>
  </g>
  <g id="_Слой_4" data-name=" Слой 4">
    <circle class="cls-2" cx="24.5" cy="70.5" r="5.5"/>
    <circle class="cls-2" cx="466.5" cy="70.5" r="5.5"/>
  </g>
  <g id="_Слой_6" data-name=" Слой 6">
    <path class="cls-2" d="M380,130h-8V11h8v119Z"/>
  </g>
  <g id="_Слой_7" data-name=" Слой 7">
    <g>
      <path class="cls-2" d="M72.34,111.36c-5.73,0-10.64-.64-14.75-1.92s-7.48-2.98-10.11-5.08c-2.64-2.11-4.62-4.46-5.93-7.06-1.32-2.6-2.13-5.18-2.43-7.74-.08-.68.15-1.24.68-1.69.53-.45,1.13-.68,1.81-.68h14.46c.9,0,1.6.15,2.09.45.49.3.96.83,1.41,1.58.83,1.81,2.24,3.26,4.24,4.35s4.73,1.64,8.19,1.64c2.71,0,5.05-.34,7.01-1.02s3.48-1.68,4.58-2.99c1.09-1.32,1.64-2.88,1.64-4.69,0-2.94-1.09-5.16-3.28-6.67s-5.27-2.26-9.27-2.26h-8.25c-.83,0-1.51-.28-2.03-.85-.53-.56-.79-1.26-.79-2.09v-9.04c0-.83.26-1.54.79-2.15.53-.6,1.2-.9,2.03-.9h8.14c3.09,0,5.61-.66,7.57-1.98s2.94-3.37,2.94-6.16c0-1.58-.43-2.99-1.3-4.24-.87-1.24-2.11-2.2-3.73-2.88s-3.6-1.02-5.93-1.02c-3.32,0-5.97.53-7.97,1.58-2,1.06-3.26,2.56-3.79,4.52-.38.68-.79,1.19-1.24,1.53s-1.09.51-1.92.51h-14.92c-.68,0-1.26-.24-1.75-.73-.49-.49-.7-1.07-.62-1.75.23-2.64,1-5.27,2.32-7.91s3.24-4.99,5.76-7.06c2.52-2.07,5.82-3.75,9.89-5.03s8.96-1.92,14.69-1.92c6.48,0,12.03,1.04,16.67,3.11,4.63,2.07,8.23,4.8,10.79,8.19s3.84,7.12,3.84,11.19c0,1.88-.27,3.82-.79,5.82-.53,2-1.41,3.88-2.66,5.65-1.24,1.77-3.07,3.33-5.48,4.69,2.86,1.36,5.1,3.05,6.72,5.08s2.79,4.22,3.5,6.55c.71,2.34,1.07,4.67,1.07,7.01,0,4.82-1.38,9.02-4.12,12.6-2.75,3.58-6.65,6.38-11.7,8.42-5.05,2.03-11.07,3.05-18.08,3.05h.01Z"/>
      <path class="cls-2" d="M121.5,110.23c-.83,0-1.51-.26-2.03-.79-.53-.53-.79-1.2-.79-2.03V33.95c0-.83.26-1.51.79-2.03.53-.53,1.2-.79,2.03-.79h14.58c.83,0,1.51.27,2.03.79.53.53.79,1.21.79,2.03v27.23h27.91v-27.23c0-.83.26-1.51.79-2.03.53-.53,1.2-.79,2.03-.79h14.58c.83,0,1.51.27,2.03.79.53.53.79,1.21.79,2.03v73.45c0,.83-.26,1.51-.79,2.03s-1.21.79-2.03.79h-14.58c-.83,0-1.51-.26-2.03-.79-.53-.53-.79-1.2-.79-2.03v-28.14h-27.91v28.14c0,.83-.27,1.51-.79,2.03-.53.53-1.21.79-2.03.79h-14.58Z"/>
      <path class="cls-1" d="M198.34,110.23c-.6,0-1.15-.24-1.64-.73-.49-.49-.73-1.03-.73-1.64,0-.38.04-.71.11-1.02l26.56-72.55c.23-.83.7-1.56,1.41-2.2s1.71-.96,2.99-.96h16.72c1.28,0,2.28.32,2.99.96s1.19,1.38,1.41,2.2l26.44,72.55c.15.3.23.64.23,1.02,0,.6-.25,1.15-.73,1.64-.49.49-1.07.73-1.75.73h-13.9c-1.13,0-1.98-.28-2.54-.85s-.92-1.07-1.07-1.53l-4.41-11.53h-30.17l-4.29,11.53c-.15.45-.49.96-1.02,1.53-.53.56-1.43.85-2.71.85h-13.9ZM224.89,80.06h21.02l-10.62-29.83-10.4,29.83h0Z"/>
      <path class="cls-2" d="M286.59,110.23c-.83,0-1.51-.26-2.03-.79-.53-.53-.79-1.2-.79-2.03V33.95c0-.83.26-1.51.79-2.03.53-.53,1.2-.79,2.03-.79h14.58c.83,0,1.51.27,2.03.79.53.53.79,1.21.79,2.03v27.23h6.89l16.72-27.91c.38-.6.9-1.11,1.58-1.53.68-.41,1.54-.62,2.6-.62h16.27c.75,0,1.36.25,1.81.73.45.49.68,1.04.68,1.64,0,.45-.15.9-.45,1.36l-21.02,34.35,23.05,37.18c.23.3.34.72.34,1.24,0,.75-.25,1.38-.73,1.86s-1.11.73-1.86.73h-16.72c-1.21,0-2.09-.26-2.66-.79s-1-.98-1.3-1.36l-17.52-28.81h-7.68v28.14c0,.83-.27,1.51-.79,2.03-.53.53-1.21.79-2.03.79h-14.58v.02Z"/>
    </g>
  </g>
  <g id="_Слой_8" data-name=" Слой 8">
    <g>
      <path class="cls-2" d="M402.47,73.39c-.36,0-.66-.13-.9-.39s-.36-.57-.36-.93c0-.16.04-.34.12-.54l13.86-31.08h-18c-.4,0-.75-.15-1.05-.45s-.45-.67-.45-1.11v-6c0-.44.15-.8.45-1.08.3-.28.65-.42,1.05-.42h28.08c.48,0,.86.14,1.14.42.28.28.42.64.42,1.08v5.34c0,.6-.06,1.1-.18,1.5s-.28.8-.48,1.2l-13.86,31.02c-.12.24-.34.54-.66.9s-.8.54-1.44.54h-7.74Z"/>
      <path class="cls-2" d="M436.85,73.39c-.36,0-.66-.13-.9-.39s-.36-.57-.36-.93c0-.16.04-.34.12-.54l13.86-31.08h-18c-.4,0-.75-.15-1.05-.45s-.45-.67-.45-1.11v-6c0-.44.15-.8.45-1.08.3-.28.65-.42,1.05-.42h28.08c.48,0,.86.14,1.14.42.28.28.42.64.42,1.08v5.34c0,.6-.06,1.1-.18,1.5s-.28.8-.48,1.2l-13.86,31.02c-.12.24-.34.54-.66.9s-.8.54-1.44.54h-7.74Z"/>
    </g>
  </g>
  <g id="_Слой_9" data-name=" Слой 9">
    <g>
      <path class="cls-2" d="M399.1,110.47c-.21,0-.4-.07-.54-.22-.15-.15-.22-.33-.22-.54v-20.83c0-.23.07-.43.22-.58s.33-.22.54-.22h8.29c2.58,0,4.62.6,6.11,1.79s2.24,2.93,2.24,5.22c0,1.58-.39,2.89-1.17,3.94s-1.82,1.8-3.12,2.27l4.67,8.16c.06.13.1.25.1.35,0,.19-.07.35-.21.48s-.29.19-.46.19h-2.91c-.36,0-.64-.1-.83-.29-.19-.19-.34-.38-.45-.58l-4.13-7.58h-4.45v7.68c0,.21-.07.4-.21.54-.14.15-.33.22-.56.22,0,0-2.91,0-2.91,0ZM402.78,98.41h4.51c1.3,0,2.27-.29,2.91-.88s.96-1.41.96-2.48-.31-1.9-.94-2.51-1.61-.91-2.93-.91h-4.51v6.78Z"/>
      <path class="cls-2" d="M428.8,110.79c-1.86,0-3.47-.31-4.83-.94s-2.42-1.6-3.17-2.91c-.75-1.31-1.12-2.99-1.12-5.04v-13.02c0-.23.07-.43.22-.58s.33-.22.54-.22h2.91c.23,0,.42.07.56.22.14.15.21.34.21.58v13.02c0,1.75.42,3.05,1.25,3.89s1.97,1.26,3.42,1.26,2.59-.42,3.41-1.26c.82-.84,1.23-2.14,1.23-3.89v-13.02c0-.23.07-.43.22-.58s.34-.22.58-.22h2.88c.23,0,.42.07.56.22.14.15.21.34.21.58v13.02c0,2.05-.37,3.73-1.1,5.04-.74,1.31-1.78,2.28-3.14,2.91-1.35.63-2.97.94-4.85.94h.01Z"/>
      <path class="cls-2" d="M450.46,110.79c-1.98,0-3.64-.29-4.98-.88-1.33-.59-2.35-1.35-3.04-2.3s-1.06-1.95-1.1-2.99c0-.19.06-.35.19-.48.13-.13.29-.19.48-.19h2.85c.28,0,.49.06.62.18.14.12.26.26.37.43.13.41.37.81.74,1.2.36.4.86.72,1.49.98s1.42.38,2.38.38c1.54,0,2.68-.26,3.44-.77.76-.51,1.14-1.21,1.14-2.08,0-.62-.2-1.11-.61-1.49-.41-.37-1.03-.71-1.87-1.02s-1.96-.63-3.34-.98c-1.6-.38-2.94-.85-4.02-1.39s-1.89-1.23-2.43-2.06-.82-1.89-.82-3.17.34-2.34,1.01-3.3c.67-.96,1.63-1.72,2.88-2.27,1.25-.55,2.74-.83,4.46-.83,1.39,0,2.61.19,3.68.56,1.07.37,1.95.86,2.66,1.47.7.61,1.24,1.26,1.62,1.95.37.69.57,1.37.59,2.03,0,.17-.06.33-.18.46-.12.14-.28.21-.5.21h-2.98c-.17,0-.34-.04-.51-.13-.17-.08-.31-.24-.42-.48-.13-.66-.54-1.23-1.25-1.7s-1.61-.7-2.72-.7-2.08.21-2.78.64-1.06,1.09-1.06,1.98c0,.6.18,1.09.53,1.49s.92.74,1.7,1.04,1.81.62,3.09.96c1.81.41,3.3.88,4.45,1.41,1.15.53,1.99,1.21,2.53,2.03.53.82.8,1.86.8,3.12,0,1.41-.38,2.61-1.14,3.6s-1.82,1.75-3.18,2.29c-1.37.53-2.96.8-4.77.8Z"/>
    </g>
  </g>
</svg>