<svg width="115" height="50" viewBox="0 0 115 50" fill="none" xmlns="http://www.w3.org/2000/svg">
<g clip-path="url(#clip0_2001_2371)">
<path d="M28.6165 25.8599C27.2744 25.8599 26.1244 25.7107 25.1618 25.4124C24.1992 25.114 23.4099 24.7178 22.7939 24.2283C22.1756 23.7365 21.7118 23.1888 21.405 22.5828C21.0958 21.9768 20.9061 21.3754 20.8358 20.7788C20.8171 20.6203 20.871 20.4897 20.9951 20.3848C21.1192 20.28 21.2598 20.2264 21.419 20.2264H24.8058C25.0166 20.2264 25.1806 20.2613 25.2953 20.3312C25.4101 20.4012 25.5202 20.5247 25.6256 20.6995C25.82 21.1214 26.1502 21.4593 26.6186 21.7134C27.0871 21.9675 27.7265 22.0956 28.5369 22.0956C29.1716 22.0956 29.7197 22.0164 30.1787 21.8579C30.6378 21.6994 30.9938 21.4663 31.2514 21.161C31.5067 20.8533 31.6355 20.4897 31.6355 20.0679C31.6355 19.3826 31.3802 18.8652 30.8673 18.5132C30.3544 18.1613 29.633 17.9865 28.6961 17.9865H26.7638C26.5695 17.9865 26.4102 17.9212 26.2884 17.7884C26.1643 17.6578 26.1034 17.4947 26.1034 17.3012V15.1942C26.1034 15.0007 26.1643 14.8352 26.2884 14.6931C26.4125 14.5532 26.5695 14.4833 26.7638 14.4833H28.6704C29.3941 14.4833 29.9843 14.3295 30.4434 14.0218C30.9024 13.7141 31.132 13.2363 31.132 12.586C31.132 12.2178 31.0313 11.8891 30.8275 11.5978C30.6237 11.3088 30.3333 11.085 29.9539 10.9265C29.5744 10.768 29.1107 10.6888 28.565 10.6888C27.7874 10.6888 27.1667 10.8123 26.6983 11.057C26.2298 11.3041 25.9347 11.6537 25.8106 12.1106C25.7216 12.2691 25.6256 12.3879 25.5202 12.4672C25.4148 12.5464 25.2649 12.586 25.0705 12.586H21.576C21.4167 12.586 21.2809 12.5301 21.1661 12.4159C21.0513 12.3017 21.0021 12.1665 21.0209 12.008C21.0747 11.3927 21.2551 10.7797 21.5643 10.1644C21.8734 9.54903 22.3231 9.00129 22.9133 8.51882C23.5036 8.03635 24.2765 7.64478 25.2297 7.34644C26.183 7.0481 27.3283 6.89893 28.6704 6.89893C30.1881 6.89893 31.488 7.14133 32.5747 7.6238C33.6592 8.10627 34.5023 8.74258 35.1019 9.53271C35.7015 10.3228 36.0013 11.1922 36.0013 12.1409C36.0013 12.579 35.9381 13.0312 35.8163 13.4974C35.6922 13.9635 35.486 14.4017 35.1933 14.8143C34.9029 15.2268 34.4742 15.5904 33.9098 15.9074C34.5796 16.2244 35.1043 16.6183 35.4837 17.0914C35.8631 17.5646 36.1372 18.075 36.3035 18.6181C36.4698 19.1635 36.5541 19.7066 36.5541 20.252C36.5541 21.3754 36.2309 22.3544 35.5891 23.1888C34.945 24.0232 34.0316 24.6758 32.8488 25.1513C31.666 25.6245 30.256 25.8622 28.6142 25.8622L28.6165 25.8599Z" fill="white"/>
<path d="M40.1821 25.5963C39.9877 25.5963 39.8284 25.5357 39.7066 25.4122C39.5825 25.2886 39.5216 25.1325 39.5216 24.939V7.81939C39.5216 7.62594 39.5825 7.46744 39.7066 7.34624C39.8308 7.22271 39.9877 7.16211 40.1821 7.16211H43.597C43.7914 7.16211 43.9506 7.22504 44.0748 7.34624C44.1989 7.46977 44.2598 7.62827 44.2598 7.81939V14.1661H50.7968V7.81939C50.7968 7.62594 50.8577 7.46744 50.9818 7.34624C51.1059 7.22271 51.2652 7.16211 51.4596 7.16211H54.8745C55.0689 7.16211 55.2281 7.22504 55.3523 7.34624C55.4764 7.46977 55.5373 7.62827 55.5373 7.81939V24.939C55.5373 25.1325 55.474 25.291 55.3523 25.4122C55.2281 25.5357 55.0689 25.5963 54.8745 25.5963H51.4596C51.2652 25.5963 51.1059 25.5357 50.9818 25.4122C50.8577 25.2886 50.7968 25.1325 50.7968 24.939V18.3802H44.2598V24.939C44.2598 25.1325 44.1966 25.291 44.0748 25.4122C43.9506 25.5357 43.7914 25.5963 43.597 25.5963H40.1821Z" fill="white"/>
<path d="M58.2331 25.5967C58.0926 25.5967 57.9637 25.5407 57.849 25.4265C57.7342 25.3123 57.6757 25.1864 57.6757 25.0443C57.6757 24.9557 57.685 24.8788 57.7014 24.8065L63.9199 7.89668C63.9737 7.70323 64.0838 7.53308 64.2501 7.38391C64.4164 7.23474 64.6506 7.16016 64.9504 7.16016H68.8665C69.1663 7.16016 69.4005 7.23474 69.5668 7.38391C69.7331 7.53308 69.8455 7.70556 69.897 7.89668L76.0897 24.8065C76.1248 24.8765 76.1436 24.9557 76.1436 25.0443C76.1436 25.1841 76.085 25.3123 75.9726 25.4265C75.8578 25.5407 75.722 25.5967 75.5627 25.5967H72.3071C72.0425 25.5967 71.8434 25.5314 71.7122 25.3985C71.5787 25.268 71.4967 25.1492 71.4616 25.0419L70.4287 22.3545H63.3624L62.3576 25.0419C62.3225 25.1468 62.2429 25.2657 62.1187 25.3985C61.9946 25.5291 61.7838 25.5967 61.484 25.5967H58.2284H58.2331ZM64.4515 18.5647H69.3747L66.8874 11.612L64.4515 18.5647Z" fill="#0077FF"/>
<path d="M78.9542 25.5967C78.7598 25.5967 78.6005 25.5361 78.4787 25.4125C78.3546 25.289 78.2937 25.1328 78.2937 24.9394V7.81977C78.2937 7.62631 78.3546 7.46782 78.4787 7.34662C78.6029 7.22309 78.7598 7.16249 78.9542 7.16249H82.3691C82.5635 7.16249 82.7227 7.22542 82.8445 7.34662C82.9686 7.47015 83.0295 7.62864 83.0295 7.81977V14.1665H84.6433L88.5594 7.66127C88.6484 7.52143 88.7702 7.40256 88.9294 7.30467C89.0887 7.2091 89.2901 7.16016 89.5384 7.16016H93.3491C93.5248 7.16016 93.6676 7.21843 93.773 7.3303C93.8784 7.44451 93.9323 7.57271 93.9323 7.71255C93.9323 7.81744 93.8972 7.92232 93.8269 8.02954L88.9037 16.0358L94.3024 24.7016C94.3562 24.7716 94.382 24.8695 94.382 24.9907C94.382 25.1655 94.3234 25.3123 94.211 25.4242C94.0962 25.5384 93.951 25.5943 93.773 25.5943H89.8569C89.5735 25.5943 89.3674 25.5337 89.2339 25.4102C89.1004 25.2867 88.9997 25.1818 88.9294 25.0932L84.8283 18.3782H83.0295V24.9371C83.0295 25.1305 82.9686 25.289 82.8445 25.4102C82.7204 25.5337 82.5611 25.5943 82.3691 25.5943H78.9542V25.5967Z" fill="white"/>
<path d="M17.4561 49.9999C16.1188 49.9999 14.9969 49.7668 14.0858 49.3006C13.1747 48.8345 12.4814 48.1772 12.0059 47.3311C11.5305 46.4827 11.2588 45.4945 11.1909 44.364C11.1745 44.0657 11.1651 43.6998 11.1651 43.2662C11.1651 42.8327 11.1745 42.4691 11.1909 42.1684C11.2564 41.0217 11.5375 40.0288 12.0294 39.1874C12.5212 38.3483 13.2239 37.6957 14.135 37.2295C15.0461 36.7634 16.1516 36.5303 17.4561 36.5303C18.7607 36.5303 19.8662 36.7634 20.7773 37.2295C21.6884 37.6957 22.3887 38.3483 22.8829 39.1874C23.3748 40.0265 23.6558 41.0194 23.7214 42.1684C23.7378 42.4668 23.7472 42.8327 23.7472 43.2662C23.7472 43.6998 23.7378 44.0634 23.7214 44.364C23.6535 45.4945 23.3841 46.4851 22.9063 47.3311C22.4309 48.1795 21.7376 48.8368 20.8265 49.3006C19.9154 49.7668 18.7912 49.9999 17.4561 49.9999ZM17.4561 47.5316C18.3415 47.5316 19.0254 47.2542 19.5102 46.6972C19.995 46.1401 20.262 45.322 20.3112 44.2405C20.3276 43.9911 20.337 43.6671 20.337 43.2686C20.337 42.87 20.3276 42.546 20.3112 42.2966C20.262 41.2338 19.9927 40.418 19.5102 39.8516C19.0254 39.2876 18.3415 39.0032 17.4561 39.0032C16.5708 39.0032 15.8846 39.2853 15.4021 39.8516C14.9172 40.418 14.6502 41.2315 14.601 42.2966C14.5847 42.546 14.5753 42.87 14.5753 43.2686C14.5753 43.6671 14.5847 43.9911 14.601 44.2405C14.6502 45.322 14.9172 46.1401 15.4021 46.6972C15.8869 47.2542 16.5708 47.5316 17.4561 47.5316Z" fill="white"/>
<path d="M29.0826 49.7506C28.8976 49.7506 28.7524 49.6923 28.6446 49.5758C28.5369 49.4593 28.4807 49.3171 28.4807 49.1516V39.4252H24.3959C24.2109 39.4252 24.0657 39.367 23.958 39.2504C23.8502 39.1339 23.794 38.9917 23.794 38.8262V37.3788C23.794 37.2133 23.8479 37.0711 23.958 36.9546C24.0657 36.8381 24.2133 36.7798 24.3959 36.7798H35.7742C35.9568 36.7798 36.1091 36.8381 36.2262 36.9546C36.3433 37.0711 36.4018 37.2133 36.4018 37.3788V38.8262C36.4018 38.9917 36.3433 39.1339 36.2262 39.2504C36.1091 39.367 35.9592 39.4252 35.7742 39.4252H31.7152V49.1516C31.7152 49.3171 31.6566 49.4593 31.5395 49.5758C31.4224 49.6923 31.2795 49.7506 31.1133 49.7506H29.0826Z" fill="white"/>
<path d="M36.5518 49.7507C36.3667 49.7507 36.2168 49.6924 36.0997 49.5759C35.9826 49.4594 35.9241 49.3102 35.9241 49.1261V47.5808C35.9241 47.2148 36.1161 47.0167 36.5002 46.9817C37.0015 46.9491 37.402 46.716 37.7041 46.2825C38.0039 45.8513 38.2217 45.1824 38.3552 44.2757C38.4887 43.369 38.5567 42.1943 38.5567 40.7469V37.3812C38.5567 37.2158 38.6152 37.0736 38.7323 36.957C38.8494 36.8405 38.9993 36.7822 39.1844 36.7822H48.0799C48.2462 36.7822 48.389 36.8405 48.5062 36.957C48.6233 37.0736 48.6818 37.2158 48.6818 37.3812V49.1517C48.6818 49.3172 48.6233 49.4594 48.5062 49.5759C48.389 49.6924 48.2462 49.7507 48.0799 49.7507H46C45.815 49.7507 45.6698 49.6924 45.5621 49.5759C45.4543 49.4594 45.3981 49.3172 45.3981 49.1517V39.4253H41.7139V41.0965C41.7139 42.6931 41.6272 44.0426 41.4516 45.1497C41.2759 46.2545 40.9831 47.1449 40.5733 47.8185C40.1634 48.4921 39.6294 48.9816 38.9689 49.2892C38.3084 49.5969 37.5027 49.7507 36.5494 49.7507H36.5518Z" fill="white"/>
<path d="M51.2113 49.7507C51.0614 49.7507 50.9279 49.6924 50.8108 49.5759C50.6937 49.4594 50.6351 49.3265 50.6351 49.1773V37.3812C50.6351 37.2158 50.6937 37.0736 50.8108 36.957C50.9279 36.8405 51.0684 36.7822 51.2371 36.7822H53.3169C53.4996 36.7822 53.6471 36.8405 53.7549 36.957C53.8626 37.0736 53.9188 37.2158 53.9188 37.3812V47.2335L53.0405 46.6088L59.9312 37.1808C60.0155 37.0643 60.1068 36.9687 60.2075 36.8941C60.3082 36.8195 60.4417 36.7822 60.608 36.7822H62.5122C62.6621 36.7822 62.7956 36.8358 62.9127 36.9454C63.0298 37.0526 63.0884 37.1831 63.0884 37.3323V49.154C63.0884 49.3195 63.0298 49.4617 62.9127 49.5782C62.7956 49.6948 62.6528 49.753 62.4865 49.753H60.4066C60.2216 49.753 60.0764 49.6948 59.9686 49.5782C59.8609 49.4617 59.8047 49.3195 59.8047 49.154V39.7516L60.7322 39.8775L53.79 49.3545C53.7221 49.4547 53.6354 49.5456 53.5277 49.6295C53.42 49.7134 53.2818 49.7554 53.1131 49.7554H51.209L51.2113 49.7507Z" fill="white"/>
<path d="M73.066 49.7507C72.8997 49.7507 72.7569 49.6924 72.6397 49.5759C72.5226 49.4594 72.4641 49.3172 72.4641 49.1517V44.912C72.0472 45.2779 71.5319 45.5483 70.9229 45.7231C70.314 45.8979 69.623 45.9842 68.8548 45.9842C67.3348 45.9842 66.1613 45.6229 65.3345 44.9004C64.5078 44.1778 64.0932 43.0101 64.0932 41.3972V37.3812C64.0932 37.2158 64.1471 37.0736 64.2572 36.957C64.3649 36.8405 64.5124 36.7822 64.6951 36.7822H66.8499C67.0162 36.7822 67.1591 36.8405 67.2762 36.957C67.3933 37.0736 67.4519 37.2158 67.4519 37.3812V41.2224C67.4519 41.8866 67.6322 42.3668 67.9906 42.6558C68.3489 42.9472 68.9298 43.0917 69.7331 43.0917C70.5365 43.0917 71.211 42.9844 71.7122 42.7677C72.2135 42.5509 72.4641 42.1687 72.4641 41.6209V37.3812C72.4641 37.2158 72.5226 37.0736 72.6397 36.957C72.7569 36.8405 72.8997 36.7822 73.066 36.7822H75.3215C75.4878 36.7822 75.6307 36.8405 75.7478 36.957C75.8649 37.0736 75.9234 37.2158 75.9234 37.3812V49.1517C75.9234 49.3172 75.8649 49.4594 75.7478 49.5759C75.6307 49.6924 75.4878 49.7507 75.3215 49.7507H73.066Z" fill="white"/>
<path d="M78.453 49.7507C78.3031 49.7507 78.1696 49.6924 78.0525 49.5759C77.9354 49.4594 77.8768 49.3265 77.8768 49.1773V37.3812C77.8768 37.2158 77.9354 37.0736 78.0525 36.957C78.1696 36.8405 78.3101 36.7822 78.4788 36.7822H80.5586C80.7413 36.7822 80.8888 36.8405 80.9966 36.957C81.1043 37.0736 81.1605 37.2158 81.1605 37.3812V47.2335L80.2822 46.6088L87.1729 37.1808C87.2572 37.0643 87.3485 36.9687 87.4492 36.8941C87.5499 36.8195 87.6834 36.7822 87.8497 36.7822H89.7539C89.9038 36.7822 90.0373 36.8358 90.1544 36.9454C90.2715 37.0526 90.3301 37.1831 90.3301 37.3323V49.154C90.3301 49.3195 90.2715 49.4617 90.1544 49.5782C90.0373 49.6948 89.8944 49.753 89.7282 49.753H87.6483C87.4633 49.753 87.3181 49.6948 87.2103 49.5782C87.1026 49.4617 87.0464 49.3195 87.0464 49.154V39.7516L87.9739 39.8775L81.0317 49.3545C80.9638 49.4547 80.8771 49.5456 80.7694 49.6295C80.6617 49.7134 80.5235 49.7554 80.3548 49.7554H78.4507L78.453 49.7507Z" fill="white"/>
<path d="M92.3116 49.7506C92.1617 49.7506 92.0352 49.7017 91.9368 49.6014C91.8361 49.5012 91.7869 49.3847 91.7869 49.2518C91.7869 49.2029 91.7963 49.1399 91.8127 49.0654C91.8291 48.9908 91.8712 48.9208 91.9368 48.8533L94.7427 44.4644L97.7992 44.8629L95.0168 49.3777C94.9676 49.4779 94.8833 49.5641 94.7661 49.6387C94.649 49.7133 94.5226 49.7506 94.3914 49.7506H92.3116ZM100.331 49.7506C100.146 49.7506 100.001 49.6923 99.8931 49.5758C99.7854 49.4593 99.7292 49.3171 99.7292 49.1516V45.3361H97.2488V45.2126C95.5601 45.2126 94.2954 44.8257 93.4522 44.0518C92.609 43.278 92.1874 42.2595 92.1874 40.9962C92.1874 39.6 92.6301 38.5489 93.5154 37.8403C94.4008 37.1341 95.6796 36.7798 97.3496 36.7798H102.462C102.629 36.7798 102.772 36.8381 102.889 36.9546C103.006 37.0711 103.064 37.2133 103.064 37.3788V49.1493C103.064 49.3147 103.006 49.4569 102.889 49.5735C102.772 49.69 102.629 49.7483 102.462 49.7483H100.333L100.331 49.7506ZM97.2746 42.968H99.7807V39.1525H97.4245C96.6563 39.1525 96.0871 39.29 95.7194 39.5651C95.3517 39.8401 95.169 40.3179 95.169 40.9985C95.169 41.5812 95.34 42.0544 95.6819 42.4203C96.0239 42.7862 96.5556 42.968 97.2723 42.968H97.2746Z" fill="white"/>
<path d="M111 32.8641H4.00041C1.79409 32.8641 0 31.0787 0 28.8831V3.98098C0 1.78538 1.79409 0 4.00041 0H111.002C113.208 0 115.002 1.78538 115.002 3.98098V28.8854C115.002 31.081 113.208 32.8664 111.002 32.8664L111 32.8641ZM4.00041 3.2631C3.60224 3.2631 3.27902 3.58475 3.27902 3.98098V28.8854C3.27902 29.2817 3.60224 29.6033 4.00041 29.6033H111.002C111.4 29.6033 111.723 29.2817 111.723 28.8854V3.98098C111.723 3.58475 111.4 3.2631 111.002 3.2631H4.00041Z" fill="white"/>
<path d="M9.25155 17.9469C10.2217 17.9469 11.0082 17.1642 11.0082 16.1988C11.0082 15.2333 10.2217 14.4507 9.25155 14.4507C8.2814 14.4507 7.49493 15.2333 7.49493 16.1988C7.49493 17.1642 8.2814 17.9469 9.25155 17.9469Z" fill="white"/>
<path d="M105.749 17.9469C106.719 17.9469 107.505 17.1642 107.505 16.1988C107.505 15.2333 106.719 14.4507 105.749 14.4507C104.778 14.4507 103.992 15.2333 103.992 16.1988C103.992 17.1642 104.778 17.9469 105.749 17.9469Z" fill="white"/>
</g>
<defs>
<clipPath id="clip0_2001_2371">
<rect width="115" height="50" fill="white"/>
</clipPath>
</defs>
</svg>
